#!OML:ASF E:\motion texture\Top Level 1\Subject 1\Session 1\male.ASF
:FULLY-SPECIFIED
:DEGREES
175
root 6.02484 18.0371 4.81022 104.584 -82.7277 -99.5255
lowerback -1.35342 -1.79148 5.50954
upperback 0.749906 -2.82259 6.57441
thorax 1.61551 -1.4863 3.62837
lowerneck -18.2652 -4.44253 -5.87086
upperneck 19.9413 -6.21369 6.55477
head 9.73089 -2.65562 2.38681
rclavicle 1.50082e-014 1.59028e-014
rhumerus -38.2858 -26.1853 -64.2661
rradius 17.5273
rwrist 18.9418
rhand -9.8314 -26.9905
rfingers 7.12502
rthumb 16.146 -56.338
lclavicle 1.50082e-014 1.59028e-014
lhumerus -39.0793 33.9378 69.7231
lradius 13.655
lwrist -62.8778
lhand -1.09021 18.0411
lfingers 7.12502
lthumb 24.5457 46.4877
rfemur -11.0148 5.19399 30.9599
rtibia 16.5835
rfoot -6.0631 -3.81863
rtoes 21.5805
lfemur -23.7036 6.38778 -7.77628
ltibia 67.3049
lfoot 6.08501 -4.47518
ltoes -10.6611
176
root 5.89186 18.0402 4.79765 106.133 -82.5746 -101.157
lowerback -1.29122 -1.67188 5.62534
upperback 0.783299 -2.65904 6.51278
thorax 1.60305 -1.40202 3.50528
lowerneck -18.2666 -4.39716 -5.82777
upperneck 20.0617 -6.15279 6.47261
head 9.76488 -2.63321 2.36032
rclavicle -2.49475e-014 2.70347e-014
rhumerus -37.5302 -25.6661 -64.836
rradius 17.7231
rwrist 18.5168
rhand -9.74541 -27.1194
rfingers 7.12502
rthumb 16.2288 -56.4601
lclavicle -2.49475e-014 2.70347e-014
lhumerus -40.3184 34.6919 69.0972
lradius 13.5999
lwrist -61.8069
lhand -1.0881 18.3847
lfingers 7.12502
lthumb 24.5478 46.8311
rfemur -10.2577 5.28835 31.2037
rtibia 16.2935
rfoot -6.32267 -3.69862
rtoes 21.4979
lfemur -24.6062 6.93863 -7.66959
ltibia 67.4272
lfoot 4.82081 -4.37144
ltoes -11.0914
177
root 5.75957 18.0424 4.7858 107.581 -82.416 -102.683
lowerback -1.20815 -1.54714 5.74843
upperback 0.802863 -2.48505 6.44798
thorax 1.56488 -1.31277 3.37577
lowerneck -18.2753 -4.35903 -5.79829
upperneck 20.1877 -6.10004 6.39884
head 9.80364 -2.61454 2.33775
rclavicle -1.5704e-014 -3.18055e-015
rhumerus -36.7867 -25.18 -65.366
rradius 17.9203
rwrist 18.0911
rhand -9.70125 -27.3073
rfingers 7.12502
rthumb 16.2713 -56.6446
lclavicle -1.5704e-014 -3.18055e-015
lhumerus -41.4904 35.3073 68.5417
lradius 13.5544
lwrist -60.7232
lhand -1.11301 18.6273
lfingers 7.12502
lthumb 24.5239 47.077
rfemur -9.51018 5.39283 31.444
rtibia 16.0089
rfoot -6.58953 -3.59488
rtoes 21.4256
lfemur -25.4726 7.4487 -7.57302
ltibia 67.3877
lfoot 3.58626 -4.25537
ltoes -11.4245
178
root 5.62842 18.0437 4.77443 108.981 -82.25 -104.147
lowerback -1.14254 -1.412 5.87938
upperback 0.815343 -2.29778 6.37477
thorax 1.52949 -1.21661 3.23268
lowerneck -18.2378 -4.32757 -5.77858
upperneck 20.2835 -6.05893 6.34404
head 9.8251 -2.60119 2.32218
rclavicle 1.88845e-015 5.88403e-014
rhumerus -36.0565 -24.7082 -65.8856
rradius 18.1367
rwrist 17.6304
rhand -9.72246 -27.5199
rfingers 7.12502
rthumb 16.2509 -56.8588
lclavicle 1.88845e-015 5.88403e-014
lhumerus -42.5332 35.6711 68.1603
lradius 13.5532
lwrist -59.5355
lhand -1.09487 18.7732
lfingers 7.12502
lthumb 24.5413 47.2205
rfemur -8.78609 5.51422 31.6825
rtibia 15.7331
rfoot -6.86104 -3.50128
rtoes 21.3712
lfemur -26.3168 7.92807 -7.48446
ltibia 67.2014
lfoot 2.34957 -4.12586
ltoes -11.6706
179
root 5.49776 18.0441 4.76395 110.244 -82.0812 -105.462
lowerback -1.07576 -1.27054 6.01722
upperback 0.812011 -2.10025 6.29807
thorax 1.47791 -1.11555 3.08229
lowerneck -18.1708 -4.3017 -5.76995
upperneck 20.368 -6.02585 6.29901
head 9.83839 -2.59214 2.31102
rclavicle -3.57812e-015 -4.77083e-014
rhumerus -35.3514 -24.247 -66.3773
rradius 18.3736
rwrist 17.1453
rhand -9.79893 -27.7696
rfingers 7.12502
rthumb 16.1773 -57.1146
lclavicle -3.57812e-015 -4.77083e-014
lhumerus -43.4541 35.8051 67.9564
lradius 13.5937
lwrist -58.3307
lhand -1.04337 18.7787
lfingers 7.12502
lthumb 24.5906 47.2192
rfemur -8.08343 5.63844 31.9159
rtibia 15.4699
rfoot -7.14059 -3.41964
rtoes 21.3117
lfemur -27.1287 8.36132 -7.40498
ltibia 66.8586
lfoot 1.11231 -3.98779
ltoes -11.7989
180
root 5.36859 18.0435 4.75411 111.461 -81.9057 -106.709
lowerback -1.03192 -1.12018 6.16502
upperback 0.807987 -1.89301 6.21538
thorax 1.43946 -1.0093 2.91946
lowerneck -18.0866 -4.28398 -5.76591
upperneck 20.4287 -6.00454 6.26478
head 9.8414 -2.5881 2.3028
rclavicle 4.27387e-015 9.85972e-014
rhumerus -34.6359 -23.7356 -66.9062
rradius 18.6604
rwrist 16.5749
rhand -9.93641 -28.0549
rfingers 7.12502
rthumb 16.0449 -57.4105
lclavicle 4.27387e-015 9.85972e-014
lhumerus -44.1907 35.7093 67.9801
lradius 13.6813
lwrist -57.0753
lhand -0.916983 18.6823
lfingers 7.12502
lthumb 24.7118 47.1063
rfemur -7.41958 5.76864 32.1463
rtibia 15.226
rfoot -7.42373 -3.33911
rtoes 21.2384
lfemur -27.9241 8.76502 -7.33242
ltibia 66.3724
lfoot -0.124792 -3.82583
ltoes -11.8323
181
root 5.24073 18.0418 4.74509 112.559 -81.7244 -107.818
lowerback -0.991758 -0.965579 6.32373
upperback 0.78977 -1.67933 6.1318
thorax 1.38972 -0.900159 2.74966
lowerneck -17.9805 -4.27326 -5.77007
upperneck 20.4774 -5.99248 6.23606
head 9.83721 -2.58892 2.29675
rclavicle -1.0138e-014 -7.95139e-015
rhumerus -33.9393 -23.1726 -67.4421
rradius 19.0003
rwrist 15.9344
rhand -10.1299 -28.3422
rfingers 7.12502
rthumb 15.8586 -57.7128
lclavicle -1.0138e-014 -7.95139e-015
lhumerus -44.747 35.3252 68.2874
lradius 13.8366
lwrist -55.7102
lhand -0.68106 18.5326
lfingers 7.12502
lthumb 24.9379 46.9254
rfemur -6.79386 5.8978 32.3758
rtibia 14.9987
rfoot -7.70725 -3.26272
rtoes 21.1401
lfemur -28.6997 9.12978 -7.26242
ltibia 65.7343
lfoot -1.30412 -3.63353
ltoes -11.8317
182
root 5.11468 18.0392 4.73667 113.571 -81.5377 -108.816
lowerback -0.968816 -0.808586 6.49831
upperback 0.773977 -1.46463 6.04292
thorax 1.35353 -0.790183 2.56505
lowerneck -17.8933 -4.26977 -5.77598
upperneck 20.5172 -5.98938 6.2135
head 9.83427 -2.59277 2.29158
rclavicle 9.34288e-015 6.36111e-014
rhumerus -33.2265 -22.5457 -68.0199
rradius 19.4027
rwrist 15.2125
rhand -10.3664 -28.6443
rfingers 7.12502
rthumb 15.6307 -58.0329
lclavicle 9.34288e-015 6.36111e-014
lhumerus -45.1124 34.7498 68.8278
lradius 14.0463
lwrist -54.3119
lhand -0.330796 18.3233
lfingers 7.12502
lthumb 25.2735 46.6692
rfemur -6.21442 6.02045 32.603
rtibia 14.7919
rfoot -7.98787 -3.1836
rtoes 21.0355
lfemur -29.4637 9.46346 -7.19448
ltibia 64.952
lfoot -2.41867 -3.38531
ltoes -11.9475
183
root 4.9901 18.0359 4.72899 114.47 -81.347 -109.679
lowerback -0.944518 -0.649499 6.68202
upperback 0.740431 -1.24556 5.95412
thorax 1.30003 -0.67863 2.37563
lowerneck -17.7801 -4.27331 -5.78939
upperneck 20.5511 -5.9961 6.19394
head 9.82542 -2.60211 2.2876
rclavicle 1.32192e-014 5.24792e-014
rhumerus -32.5492 -21.8417 -68.6044
rradius 19.8778
rwrist 14.4119
rhand -10.6358 -28.9543
rfingers 7.12502
rthumb 15.3713 -58.3629
lclavicle 1.32192e-014 5.24792e-014
lhumerus -45.3745 34.04 69.5108
lradius 14.2937
lwrist -53.0005
lhand 0.0917447 18.0476
lfingers 7.12502
lthumb 25.6782 46.3357
rfemur -5.67418 6.13241 32.828
rtibia 14.6028
rfoot -8.26398 -3.10373
rtoes 20.9211
lfemur -30.2036 9.76071 -7.12574
ltibia 64.0165
lfoot -3.41191 -3.06414
ltoes -12.1749
184
root 4.86658 18.032 4.72192 115.228 -81.1597 -110.384
lowerback -0.924896 -0.493103 6.87014
upperback 0.696974 -1.02984 5.86602
thorax 1.24088 -0.569201 2.18434
lowerneck -17.6576 -4.28195 -5.8137
upperneck 20.5831 -6.00805 6.17707
head 9.81494 -2.61466 2.28575
rclavicle -1.0138e-014 5.725e-014
rhumerus -31.8954 -21.0608 -69.196
rradius 20.4265
rwrist 13.5418
rhand -10.9292 -29.2596
rfingers 7.12502
rthumb 15.0887 -58.6897
lclavicle -1.0138e-014 5.725e-014
lhumerus -45.5439 33.2262 70.3141
lradius 14.5757
lwrist -51.7792
lhand 0.57621 17.7242
lfingers 7.12502
lthumb 26.1422 45.9445
rfemur -5.16262 6.22928 33.047
rtibia 14.4211
rfoot -8.53546 -3.02833
rtoes 20.7914
lfemur -30.9088 10.0156 -7.05815
ltibia 62.9233
lfoot -4.27047 -2.65411
ltoes -12.5176
185
root 4.74372 18.0279 4.71541 115.869 -80.9809 -110.952
lowerback -0.907619 -0.339592 7.05843
upperback 0.640148 -0.816845 5.7756
thorax 1.17116 -0.461701 1.99044
lowerneck -17.528 -4.29386 -5.8473
upperneck 20.623 -6.02376 6.16213
head 9.80653 -2.62968 2.28574
rclavicle -6.36111e-015 -4.21423e-014
rhumerus -31.274 -20.2192 -69.783
rradius 21.0444
rwrist 12.6292
rhand -11.2354 -29.5701
rfingers 7.12502
rthumb 14.7937 -59.022
lclavicle -6.36111e-015 -4.21423e-014
lhumerus -45.6484 32.3423 71.1861
lradius 14.8761
lwrist -50.68
lhand 1.06655 17.3608
lfingers 7.12502
lthumb 26.6115 45.5107
rfemur -4.6768 6.31446 33.2544
rtibia 14.243
rfoot -8.80158 -2.95998
rtoes 20.6385
lfemur -31.5718 10.2252 -6.99497
ltibia 61.6691
lfoot -4.99963 -2.15124
ltoes -12.8947
